<?xml version="1.0" standalone="no"?>
<!DOCTYPE svg PUBLIC "-//W3C//DTD SVG 20010904//EN"
 "http://www.w3.org/TR/2001/REC-SVG-20010904/DTD/svg10.dtd">
<svg version="1.0" xmlns="http://www.w3.org/2000/svg"
 width="366.000000pt" height="366.000000pt" viewBox="0 0 366.000000 366.000000"
 preserveAspectRatio="xMidYMid meet">
<metadata>
Created by potrace 1.11, written by Peter Selinger 2001-2013
</metadata>
<g transform="translate(0.000000,366.000000) scale(0.100000,-0.100000)"
fill="#000000" stroke="none">
<path d="M1328 3641 c-158 -51 -276 -178 -309 -333 -7 -31 -12 -173 -13 -353
l-1 -300 -276 -1 c-152 -1 -301 -4 -330 -8 -172 -23 -336 -175 -384 -357 -21
-77 -21 -869 -1 -945 39 -147 150 -265 297 -314 59 -20 85 -22 379 -23 l315
-2 2 -298 c1 -270 3 -304 22 -366 48 -158 178 -284 336 -325 88 -23 862 -24
949 -1 158 41 277 158 323 314 13 45 16 114 18 361 1 168 3 308 4 311 0 3 126
6 280 6 153 0 301 4 327 7 125 19 282 134 339 250 52 107 54 128 55 575 0 452
-3 483 -56 582 -64 117 -188 205 -319 225 -28 4 -181 7 -340 7 l-291 0 0 276
c-1 152 -3 296 -7 321 -21 166 -154 327 -317 385 -51 18 -87 20 -500 22 -407
2 -450 0 -502 -16z"/>
</g>
</svg>
