<svg id="Layer_1" data-name="Layer 1" xmlns="http://www.w3.org/2000/svg" xmlns:xlink="http://www.w3.org/1999/xlink" viewBox="0 0 102.66 48.02"><defs><style>.cls-1{fill:none;}.cls-2{fill:#bbcde5;}.cls-3{fill:#fff;}.cls-4{clip-path:url(#clip-path);}.cls-5{fill:#e0e8f3;}</style><clipPath id="clip-path" transform="translate(0 0)"><path class="cls-1" d="M84.93,15.82H32l-8.25-5.55a2,2,0,0,0-1.12-.34H19.53a1,1,0,0,0-.89,1.47L24.1,21.79a6,6,0,0,0,3.37,2.89l11.38,3.87a19.73,19.73,0,0,0,6.41,1.07l44.4.12a13.44,13.44,0,0,0,5.52-1.13L100,26.45a2.69,2.69,0,0,0,1.66-2.38,3.35,3.35,0,0,0-1.25-2.62S90.45,15.82,84.93,15.82Z"/></clipPath></defs><title>banner-airplane_2</title><g id="Layer_2" data-name="Layer 2"><g id="Isolation_Mode" data-name="Isolation Mode"><path class="cls-2" d="M15,19.81H1a1,1,0,0,1,0-2H15a1,1,0,1,1,0,2Z" transform="translate(0 0)"/><path class="cls-2" d="M17.17,25h-12a1,1,0,0,1,0-2h12a1,1,0,0,1,0,2Z" transform="translate(0 0)"/><path class="cls-3" d="M84.93,15.82H32l-8.25-5.55a2,2,0,0,0-1.12-.34H19.53a1,1,0,0,0-.89,1.47L24.1,21.79a6,6,0,0,0,3.37,2.89l11.38,3.87a19.73,19.73,0,0,0,6.41,1.07l44.4.12a13.44,13.44,0,0,0,5.52-1.13L100,26.45a2.69,2.69,0,0,0,1.66-2.38h0a3.35,3.35,0,0,0-1.25-2.62S90.45,15.82,84.93,15.82Z" transform="translate(0 0)"/><path class="cls-3" d="M51.41,15.82,43.78,2.5A1,1,0,0,1,44.65,1h3.43a2,2,0,0,1,1.29.47L66.46,15.82Z" transform="translate(0 0)"/><path class="cls-2" d="M66.46,16.82h-15a1,1,0,0,1-.87-.51L42.91,3a2,2,0,0,1,0-2,2,2,0,0,1,1.73-1h3.43A3,3,0,0,1,50,.7L67.1,15.05a1,1,0,0,1,.3,1.11A1,1,0,0,1,66.46,16.82ZM52,14.82H63.71l-15-12.59A1,1,0,0,0,48.08,2H44.65Z" transform="translate(0 0)"/><path class="cls-2" d="M39.16,18.82h0a1.5,1.5,0,0,1,1.5,1.5v1a1.5,1.5,0,0,1-1.5,1.5h0a1.5,1.5,0,0,1-1.5-1.5v-1A1.5,1.5,0,0,1,39.16,18.82Z" transform="translate(0 0)"/><path class="cls-2" d="M46.16,18.82h0a1.5,1.5,0,0,1,1.5,1.5v1a1.5,1.5,0,0,1-1.5,1.5h0a1.5,1.5,0,0,1-1.5-1.5v-1A1.5,1.5,0,0,1,46.16,18.82Z" transform="translate(0 0)"/><path class="cls-2" d="M53.16,18.82h0a1.5,1.5,0,0,1,1.5,1.5v1a1.5,1.5,0,0,1-1.5,1.5h0a1.5,1.5,0,0,1-1.5-1.5v-1A1.5,1.5,0,0,1,53.16,18.82Z" transform="translate(0 0)"/><path class="cls-2" d="M60.16,18.82h0a1.5,1.5,0,0,1,1.5,1.5v1a1.5,1.5,0,0,1-1.5,1.5h0a1.5,1.5,0,0,1-1.5-1.5v-1A1.5,1.5,0,0,1,60.16,18.82Z" transform="translate(0 0)"/><path class="cls-2" d="M67.16,18.82h0a1.5,1.5,0,0,1,1.5,1.5v1a1.5,1.5,0,0,1-1.5,1.5h0a1.5,1.5,0,0,1-1.5-1.5v-1A1.5,1.5,0,0,1,67.16,18.82Z" transform="translate(0 0)"/><path class="cls-2" d="M74.16,18.82h0a1.5,1.5,0,0,1,1.5,1.5v1a1.5,1.5,0,0,1-1.5,1.5h0a1.5,1.5,0,0,1-1.5-1.5v-1A1.5,1.5,0,0,1,74.16,18.82Z" transform="translate(0 0)"/><path class="cls-2" d="M81.16,18.82h0a1.5,1.5,0,0,1,1.5,1.5v1a1.5,1.5,0,0,1-1.5,1.5h0a1.5,1.5,0,0,1-1.5-1.5v-1A1.5,1.5,0,0,1,81.16,18.82Z" transform="translate(0 0)"/><path class="cls-3" d="M58.06,29.82h11.2v.45a3.55,3.55,0,0,1-3.55,3.55H58.06v-4Z" transform="translate(0 0)"/><path class="cls-2" d="M65.71,34.82H58.06a1,1,0,0,1-1-1v-4a1,1,0,0,1,1-1h11.2a1,1,0,0,1,1,1v.45A4.55,4.55,0,0,1,65.71,34.82Zm-6.65-2h6.65a2.55,2.55,0,0,0,2.49-2H59.06Z" transform="translate(0 0)"/><path class="cls-2" d="M96.1,19.82H90c-.32,0-.48.55-.24.76l1.55.88a3.91,3.91,0,0,0,2.26.35h6.92Z" transform="translate(0 0)"/><g class="cls-4"><polygon class="cls-5" points="102.49 31.82 16.66 31.82 16.66 24.82 102.49 24.82 102.49 31.82"/></g><path class="cls-2" d="M89.82,30.74h-.17l-44.4-.12a20.78,20.78,0,0,1-6.72-1.12L27.15,25.62a7,7,0,0,1-3.94-3.37L17.75,11.86a2,2,0,0,1,1.78-2.93H22.6a3,3,0,0,1,1.67.51l8,5.38H84.93c5.72,0,15.55,5.52,16,5.76a.38.38,0,0,1,.13.09,4.29,4.29,0,0,1,1.63,3.4,3.71,3.71,0,0,1-2.28,3.3l-4.79,2.15A14.16,14.16,0,0,1,89.82,30.74ZM19.53,10.93,25,21.32a5,5,0,0,0,2.82,2.41l11.38,3.88a18.78,18.78,0,0,0,6.08,1l44.4.12a11.86,11.86,0,0,0,5.11-1l4.82-2.16a1.67,1.67,0,0,0,1.07-1.5,2.31,2.31,0,0,0-.82-1.75c-.92-.52-10-5.46-14.91-5.46H32a1,1,0,0,1-.56-.17L23.16,11.1a1,1,0,0,0-.56-.17Z" transform="translate(0 0)"/><path class="cls-3" d="M52.06,25.82l-8.21,19.8A1,1,0,0,0,44.77,47h3.76A2,2,0,0,0,50,46.4L69.6,25.82Z" transform="translate(0 0)"/><path class="cls-2" d="M48.54,48H44.77a2,2,0,0,1-1.66-.89,2,2,0,0,1-.18-1.88l8.21-19.81a1,1,0,0,1,.92-.61H69.6a1,1,0,0,1,.72,1.69L50.71,47.09A3,3,0,0,1,48.54,48Zm4.19-21.2L44.78,46h3.76a1,1,0,0,0,.72-.31l18-18.89Z" transform="translate(0 0)"/><path class="cls-2" d="M100.66,26.82H31.35a1,1,0,0,1,0-2h69.31a1,1,0,0,1,0,2Z" transform="translate(0 0)"/></g></g></svg>