<svg id="Layer_1" data-name="Layer 1" xmlns="http://www.w3.org/2000/svg" xmlns:xlink="http://www.w3.org/1999/xlink" viewBox="0 0 114.48 44"><defs><style>.cls-1,.cls-2,.cls-6{fill:none;}.cls-2,.cls-4,.cls-6{stroke:#bbcde5;stroke-linejoin:round;stroke-width:2px;}.cls-2,.cls-4{stroke-linecap:round;}.cls-3,.cls-4{fill:#fff;}.cls-5{fill:#bbcde5;}.cls-7{clip-path:url(#clip-path);}.cls-8{fill:#e0e8f3;}</style><clipPath id="clip-path"><path class="cls-1" d="M95.27,18H48.54a8.05,8.05,0,0,1-5.9-2.49l-12.1-13A4.34,4.34,0,0,0,27.59,1H22.25a1.24,1.24,0,0,0-1.16,1.32,1.26,1.26,0,0,0,.16.53l6,15.15H21.72C20.9,18,20,19.22,20,20v1a1.77,1.77,0,0,0,1.18,1.54l21.28,8.15a19.45,19.45,0,0,0,7,1.23H100a13.28,13.28,0,0,0,5.52-1.13l4.82-2.16A2.69,2.69,0,0,0,112,26.25h0a3.37,3.37,0,0,0-1.25-2.62S100.79,18,95.27,18Z"/></clipPath></defs><title>banner-airplane_1</title><g id="Layer_2" data-name="Layer 2"><g id="Isolation_Mode" data-name="Isolation Mode"><line class="cls-2" x1="14" y1="18" x2="1" y2="18"/><line class="cls-2" x1="14" y1="22" x2="8" y2="22"/><path class="cls-3" d="M95.27,18H48.54a8.05,8.05,0,0,1-5.9-2.49l-12.1-13A4.34,4.34,0,0,0,27.59,1H22.25a1.24,1.24,0,0,0-1.16,1.32,1.26,1.26,0,0,0,.16.53l6,15.15H21.72C20.9,18,20,19.22,20,20v1a1.77,1.77,0,0,0,1.18,1.54l21.28,8.15a19.45,19.45,0,0,0,7,1.23H100a13.28,13.28,0,0,0,5.52-1.13l4.82-2.16A2.69,2.69,0,0,0,112,26.25h0a3.37,3.37,0,0,0-1.25-2.62S100.79,18,95.27,18Z"/><path class="cls-4" d="M60.75,18l-1-3.63a1.89,1.89,0,0,1,1.32-2.31,2.32,2.32,0,0,1,.38-.06h5.89a1.9,1.9,0,0,1,1.39.77L74.8,18Z"/><path class="cls-5" d="M49.5,21h0A1.5,1.5,0,0,1,51,22.5v1A1.5,1.5,0,0,1,49.5,25h0A1.5,1.5,0,0,1,48,23.5v-1A1.5,1.5,0,0,1,49.5,21Z"/><path class="cls-5" d="M56.5,21h0A1.5,1.5,0,0,1,58,22.5v1A1.5,1.5,0,0,1,56.5,25h0A1.5,1.5,0,0,1,55,23.5v-1A1.5,1.5,0,0,1,56.5,21Z"/><path class="cls-5" d="M63.5,21h0A1.5,1.5,0,0,1,65,22.5v1A1.5,1.5,0,0,1,63.5,25h0A1.5,1.5,0,0,1,62,23.5v-1A1.5,1.5,0,0,1,63.5,21Z"/><path class="cls-5" d="M70.5,21h0A1.5,1.5,0,0,1,72,22.5v1A1.5,1.5,0,0,1,70.5,25h0A1.5,1.5,0,0,1,69,23.5v-1A1.5,1.5,0,0,1,70.5,21Z"/><path class="cls-5" d="M77.5,21h0A1.5,1.5,0,0,1,79,22.5v1A1.5,1.5,0,0,1,77.5,25h0A1.5,1.5,0,0,1,76,23.5v-1A1.5,1.5,0,0,1,77.5,21Z"/><path class="cls-5" d="M84.5,21h0A1.5,1.5,0,0,1,86,22.5v1A1.5,1.5,0,0,1,84.5,25h0A1.5,1.5,0,0,1,83,23.5v-1A1.5,1.5,0,0,1,84.5,21Z"/><path class="cls-5" d="M91.5,21h0A1.5,1.5,0,0,1,93,22.5v1A1.5,1.5,0,0,1,91.5,25h0A1.5,1.5,0,0,1,90,23.5v-1A1.5,1.5,0,0,1,91.5,21Z"/><path class="cls-4" d="M67,32H81v.57A4.43,4.43,0,0,1,76.57,37H67V32Z"/><path class="cls-5" d="M106.44,22h-6.12c-.32,0-.48.55-.24.76l1.55.88a3.91,3.91,0,0,0,2.26.35h6.92Z"/><line class="cls-6" x1="27" y1="18" x2="49" y2="18"/><g class="cls-7"><polygon class="cls-8" points="114.48 43 27 43 27 27 112.83 27 114.48 43"/></g><path class="cls-2" d="M95.27,18H48.54a8.05,8.05,0,0,1-5.9-2.49l-12.1-13A4.34,4.34,0,0,0,27.59,1H22.25a1.24,1.24,0,0,0-1.16,1.32,1.26,1.26,0,0,0,.16.53l6,15.15H21.72C20.9,18,20,19.22,20,20v1a1.77,1.77,0,0,0,1.18,1.54l21.28,8.15a19.45,19.45,0,0,0,7,1.23H100a13.28,13.28,0,0,0,5.52-1.13l4.82-2.16A2.69,2.69,0,0,0,112,26.25h0a3.37,3.37,0,0,0-1.25-2.62S100.79,18,95.27,18Z"/><path class="cls-4" d="M62.4,28,60.2,41.37A1.39,1.39,0,0,0,61.33,43l.19,0h5.92a1.41,1.41,0,0,0,1.15-.7L78.94,28Z"/><path class="cls-4" d="M34.46,22h4.08c1,0,1.67,1.66,1.13,2.54l-5,8a1.17,1.17,0,0,1-1.08.47H29.67c-.93,0-1.54-.56-1.15-1.41L31.88,24A3.19,3.19,0,0,1,34.46,22Z"/><line class="cls-2" x1="38" y1="28" x2="111" y2="28"/></g></g></svg>