<?xml version="1.0" encoding="utf-8"?>
<!-- Generator: Adobe Illustrator 21.0.2, SVG Export Plug-In . SVG Version: 6.00 Build 0)  -->
<svg version="1.1" id="Layer_1" xmlns="http://www.w3.org/2000/svg" xmlns:xlink="http://www.w3.org/1999/xlink" x="0px" y="0px"
	 viewBox="0 0 74.1 20" style="enable-background:new 0 0 74.1 20;" xml:space="preserve">
<style type="text/css">
	.st0{fill:#FFFFFF;}
</style>
<g>
	<polygon class="st0" points="14.6,8.6 14.6,14.3 5.6,14.3 5.6,5.3 11.4,5.3 16.7,0 0,0 0,16.8 3.2,19.9 19.9,19.9 19.9,3.3 	"/>
	<g>
		<path class="st0" d="M44,5.2c1.1,0,2.1,0.3,3.1,0.8c1,0.5,1.7,1.3,2.3,2.2c0.5,0.9,0.8,2,0.8,3c0,1.1-0.3,2.1-0.8,3.1
			c-0.5,1-1.3,1.7-2.2,2.2c-0.9,0.5-2,0.8-3.1,0.8c-1.7,0-3.1-0.6-4.3-1.8C38.6,14.4,38,13,38,11.3c0-1.8,0.7-3.3,2-4.5
			C41.2,5.7,42.5,5.2,44,5.2z M44.1,7.9c-0.9,0-1.7,0.3-2.3,0.9c-0.6,0.6-0.9,1.4-0.9,2.4c0,1,0.3,1.8,0.9,2.5
			c0.6,0.6,1.3,0.9,2.3,0.9c0.9,0,1.7-0.3,2.3-0.9c0.6-0.6,0.9-1.4,0.9-2.4c0-1-0.3-1.8-0.9-2.4C45.8,8.2,45,7.9,44.1,7.9z"/>
		<path class="st0" d="M49.8,5.5h3.4l2.3,3.2l2.3-3.2h3.3l-3.9,5.5l4.5,6.1h-3.4l-2.8-3.8l-2.7,3.8h-3.3l4.4-6.1L49.8,5.5z"/>
	</g>
	<polygon class="st0" points="64.4,20 67.4,20 74.1,5.5 71.1,5.5 67.8,12.8 64.8,5.5 61.8,5.5 66.2,16.2 	"/>
	<path class="st0" d="M36.4,8.2c-0.5-0.9-1.3-1.7-2.3-2.2c-1-0.5-2-0.8-3.1-0.8c-1.1,0-2.2,0.3-3.1,0.9V2.6H25v14.5h2.9v-0.6
		c0.9,0.6,2,0.9,3.1,0.9c1.1,0,2.2-0.3,3.1-0.8s1.7-1.3,2.2-2.2c0.5-1,0.8-2,0.8-3.1C37.2,10.2,36.9,9.2,36.4,8.2z M33.4,13.7
		c-0.6,0.6-1.4,0.9-2.3,0.9c-0.9,0-1.7-0.3-2.3-0.9c-0.6-0.6-0.9-1.4-0.9-2.5c0-1,0.3-1.8,0.9-2.4c0.6-0.6,1.4-0.9,2.3-0.9
		c0.9,0,1.7,0.3,2.3,0.9c0.6,0.6,0.9,1.4,0.9,2.4C34.3,12.3,34,13.1,33.4,13.7z"/>
</g>
</svg>
