<svg id="Layer_1" data-name="Layer 1" xmlns="http://www.w3.org/2000/svg" xmlns:xlink="http://www.w3.org/1999/xlink" viewBox="0 0 60 82.74"><defs><style>.cls-1,.cls-2,.cls-4{isolation:isolate;}.cls-2{filter:url(#filter-1);}.cls-3{fill:#bbcde5;}.cls-4{fill:#6f8193;opacity:0.83;}.cls-5{fill:#eb008b;}.cls-6{fill:#fff;}.cls-7{fill:#d3d4d5;}.cls-8{fill:#04e762;}.cls-9{fill:#00a1e4;}.cls-10{fill:none;}</style><filter id="filter-1" x="-14.1" y="-59.6" width="128.2" height="219.2" name="filter-1"><feGaussianBlur stdDeviation="1.79" in="SourceGraphic"/></filter></defs><title>pin-nugl</title><g id="Page-1" class="cls-1"><g id="Hot-dog_pin_mobile" data-name="Hot-dog pin mobile"><g id="Group-9"><g class="cls-2"><ellipse class="cls-3" cx="30" cy="73.99" rx="17.81" ry="4.22"/></g></g></g></g><ellipse class="cls-4" cx="30" cy="73.33" rx="9.63" ry="1.98"/><path d="M30,73.6l-.53-.33A84,84,0,0,1,14.78,61.08C5.11,51,0,40.27,0,30a30,30,0,0,1,60,0c0,10.27-5.11,21-14.78,31.08A84.11,84.11,0,0,1,30.54,73.27Z"/><path class="cls-5" d="M30,2A28,28,0,0,0,2,30c0,21.8,24,38.6,28,41.19C33.92,68.6,58,51.79,58,30A28,28,0,0,0,30,2Zm0,51.38A23.41,23.41,0,1,1,53.4,30,23.43,23.43,0,0,1,30,53.41Z"/><circle class="cls-6" cx="29.99" cy="30" r="21.38" transform="translate(-6.09 7.69) rotate(-13.28)"/><path class="cls-7" d="M33.34,46.78H26.91a4.71,4.71,0,0,1-4.7-4.68V37.78H17.65a4.44,4.44,0,0,1-4.44-4.43V26.92a4.72,4.72,0,0,1,4.68-4.71h4.32V17.66a4.44,4.44,0,0,1,4.43-4.44h6.43a4.71,4.71,0,0,1,4.7,4.68v4.32h4.56a4.45,4.45,0,0,1,4.44,4.44v6.43a4.71,4.71,0,0,1-4.69,4.7H37.77v4.56A4.44,4.44,0,0,1,33.34,46.78ZM23.07,36.91v5.18a3.86,3.86,0,0,0,3.84,3.82h6.43a3.57,3.57,0,0,0,3.57-3.57V36.92h5.17a3.86,3.86,0,0,0,3.82-3.84V26.65a3.57,3.57,0,0,0-3.57-3.57H36.91V17.91a3.86,3.86,0,0,0-3.84-3.82H26.64a3.57,3.57,0,0,0-3.57,3.57v5.42H17.89a3.85,3.85,0,0,0-3.81,3.84v6.43a3.58,3.58,0,0,0,3.57,3.57Z"/><path class="cls-8" d="M33.34,43.49h-6.7a1.15,1.15,0,0,1-1.15-1.15V34.5h9v7.84A1.15,1.15,0,0,1,33.34,43.49Z"/><path class="cls-5" d="M34.49,25.5h-9V17.66a1.15,1.15,0,0,1,1.15-1.15h6.7a1.15,1.15,0,0,1,1.15,1.15Z"/><path class="cls-9" d="M42.33,34.5H34.49v-9h7.84a1.15,1.15,0,0,1,1.15,1.15v6.7A1.15,1.15,0,0,1,42.33,34.5Z"/><path class="cls-8" d="M25.49,34.5H17.65a1.15,1.15,0,0,1-1.15-1.15v-6.7a1.15,1.15,0,0,1,1.15-1.15h7.84Z"/><rect class="cls-10" width="60" height="82.74"/></svg>