<svg id="Layer_1" data-name="Layer 1" xmlns="http://www.w3.org/2000/svg" viewBox="0 0 600 420"><defs><style>.cls-1{fill:#fff;}.cls-2{fill:#e4ebf4;}.cls-3{fill:#ebeff6;}</style></defs><title>road_map</title><path class="cls-1" d="M600,81.72,458.21,108.83l-5.49-24.28c15.57-6.33,29.83-10.33,42.71-14,18.47-5.19,34.43-9.68,46.25-19.43C555.11,40.09,561.37,23.83,561.37,0H535.65c0,20.1-5.23,27.12-10.34,31.34-7.63,6.3-20.52,9.92-36.84,14.5-11.27,3.17-24.1,6.77-38.22,12.08V0H437.4V43.88H402.67L413.92,0h-8.85L393.82,43.88H334l-12-23L344.39,0H325.5L277.75,44.37,266.13,0H252.84l13.72,52.37-33.2,19.45L216.92,93.05,194.82,0H181.6l24.55,103.34-14.52,6.43-1.71-10.83,0-.31L164.27,0H151l14.73,56.76H0v8.57H168l9.32,35.92,2,12.9L58.81,144C41.42,133.09,22.06,126.35,0,126.35v25.71c51.52,0,87.32,50.13,121.94,98.61,13.45,18.84,26.35,36.9,40,51.8l-24.8,12.63A40.68,40.68,0,0,0,89,301.34L71.76,272.79,0,248.83v13.56l63.2,21.1L78,308A40.72,40.72,0,0,0,65.51,351.6L0,385v14.43l71.36-36.36a40.69,40.69,0,0,0,48.27,13.75L145.75,420h15l-30.17-49.89A40.69,40.69,0,0,0,143,326.55l28.35-14.45c1.58,1.5,3.17,3,4.78,4.36,17.41,15.22,34.8,22.76,52.7,22.76a68.78,68.78,0,0,0,19-2.77,96.76,96.76,0,0,0,27.79-12.8l57.89,52.7L293.05,420h11.69l34.18-36.86L362.23,420h15.22l-29.62-46.81,18.76-22L412.31,420h15.43l-52.69-79.31,48.41-65.56,88,64.39L428.68,420h18.44l74.82-72.78L600,404.35V388.42L528.39,336l23.29-130.14L600,201.23v-8.61l-48.52,4.66L534.6,103,600,90.45ZM104.26,315.52a23.49,23.49,0,0,1,17.25,7.54l-14.79,7.54L98.1,316.35A23.19,23.19,0,0,1,104.26,315.52ZM80.69,339.09A23.48,23.48,0,0,1,87.08,323l8.15,13.47-14.1,7.19A23.48,23.48,0,0,1,80.69,339.09Zm23.57,23.58A23.49,23.49,0,0,1,87,355.09l14.93-7.61,8.66,14.32A23.43,23.43,0,0,1,104.26,362.67Zm17.28-7.56-8.15-13.48,14-7.13a24,24,0,0,1,.45,4.59A23.51,23.51,0,0,1,121.54,355.11ZM440.73,89.79l5.89,26.07,0,.06L401.37,186l-15.62-43.43L376,134.31a108.37,108.37,0,0,1,10.78-10.15A255.21,255.21,0,0,1,440.73,89.79Zm-116,79.34c-6.8,16-12,32.41-16.89,48-3.07,9.71-6,19.13-9.24,28l-45.32-96.07,25-26.13Zm-39.61-51.49,29.77-18.38,33.33,28.28a181.56,181.56,0,0,0-19.75,33.21Zm47.24,107.21c8.93-28.29,18.09-57.32,35.5-80.65l7,5.93,17.77,49.44L325.81,302.91l-12.4-26.27C321.11,260.36,326.75,242.49,332.32,224.85Zm68.15-172.4H437.4V63.12a270.64,270.64,0,0,0-46.24,25.63Zm-66,0h57.11L380.3,96.57q-4.85,3.68-9.78,7.7a135.14,135.14,0,0,0-14.1,13.39l-33.6-28.5ZM315.43,26.91l11.32,21.66-11,34.59-31.81-27ZM269.35,60.66,308,93.43l-29.15,18L243.21,76Zm-32.69,20.9,35.54,35.35-23.76,24.8-28.56-38.48Zm-26.93,29.57L237.1,148l-37.82,10.17L193,118.53Zm31,200.6c-36.19,10.39-64.79-29.65-97.9-76C121,205.16,97.47,172.16,68.27,150.5l112.38-27.86,21.11,133.75,54,49.19A72.31,72.31,0,0,1,240.76,311.73Zm25.92-13.63-52.92-48.18L200.62,166.7l41.45-11.15,50,106C285.6,276.19,277.74,288.78,266.68,298.1Zm75.39,68.64-56.18-51.15a109.25,109.25,0,0,0,20-24.8l13,27.46L360.61,345Zm26.6-31.85L331,310.75l65.29-101,21.24,59.09ZM405,196.13l44.89-69.46,24.89,82.23-47.6,48.92ZM516.84,327.55l-85-62.22,51.46-52.89,55.09-5.29Zm21.8-129-52.05,5-26.15-86.38L522,105.36Z"/><path class="cls-2" d="M229,332.75c-16.41,0-32.45-7-48.62-21.13-18.57-16.23-35.38-39.77-53.18-64.69C91.6,197.13,54.82,145.63,0,145.63V132.77c27.69,0,53.52,11.44,79,35,21.85,20.2,40.56,46.4,58.65,71.73,17.35,24.29,33.74,47.24,51.18,62.48,18.45,16.12,35.52,21.19,53.72,16,44.2-12.68,56.81-52.62,71.4-98.87,6.13-19.42,12.47-39.5,21.6-58.36C346,139,358.81,122.19,374.6,109.24,420.48,71.62,460.78,60.3,490.21,52c17.05-4.79,30.52-8.57,39.19-15.73,5.9-4.87,12.68-13.4,12.68-36.3h12.86c0,47.2-25.69,54.42-61.25,64.41-28.34,8-67.14,18.86-110.94,54.78-32.14,26.35-44.55,65.68-56.56,103.72-7.51,23.79-14.6,46.26-26.18,65.22-13.29,21.75-30.93,35.54-53.93,42.14A61.9,61.9,0,0,1,229,332.75Z"/><circle class="cls-3" cx="104.26" cy="339.09" r="32.14" transform="translate(-248.92 305.65) rotate(-67.5)"/><path class="cls-3" d="M285.08,117.64l29.77-18.38,33.33,28.28a181.56,181.56,0,0,0-19.75,33.21ZM400.47,52.45H437.4V63.12a270.64,270.64,0,0,0-46.24,25.63ZM269.35,60.66,308,93.43l-29.15,18L243.21,76Z"/><polygon class="cls-3" points="368.67 334.89 330.95 310.75 396.24 209.71 417.48 268.8 368.67 334.89"/><path class="cls-3" d="M342.07,366.74l-56.18-51.15a109.25,109.25,0,0,0,20-24.8l13,27.46L360.61,345Z"/></svg>